#!OML:ASF H:\Male1\Project 1\Capture day 1\Session 1\Male1.ASF
:FULLY-SPECIFIED
:DEGREES
318
root 17.0233 15.4037 -2.00175 182.363 -76.2597 -184.771
lowerback 8.03204 0.488889 -1.12417
upperback 3.87987 0.42974 -0.430979
thorax -0.500622 0.147305 0.152556
lowerneck -8.85708 3.12992 6.6439
upperneck 5.72263 3.48164 -1.54832
head 3.62507 1.81008 -1.49056
rclavicle -4.95719e-015 -3.05631e-015
rhumerus -36.7452 21.3106 -89.3971
rradius 41.9323
rwrist -23.335
rhand -16.009 2.24993
rfingers 7.12502
rthumb 10.1915 -27.4832
lclavicle -4.95719e-015 -3.05631e-015
lhumerus 8.24704 -4.04055 28.9232
lradius 45.2126
lwrist -5.10251
lhand -54.1976 19.2588
lfingers 7.12502
lthumb -26.6124 47.4086
rfemur -4.06111 12.2768 25.2055
rtibia 24.2306
rfoot -27.3332 -26.5336
rtoes -15.6547
lfemur -7.37706 -10.6486 -22.6094
ltibia 29.8297
lfoot -23.3711 20.1623
ltoes 1.35806
319
root 17.0107 15.4004 -1.99413 182.016 -76.4373 -184.378
lowerback 7.84018 0.498583 -1.08726
upperback 3.841 0.452705 -0.387088
thorax -0.435291 0.160564 0.176167
lowerneck -8.30014 2.58271 5.83349
upperneck 5.3034 2.76789 -0.0893397
head 3.28219 1.48687 -0.906259
rclavicle 4.93234e-015 1.01877e-015
rhumerus -37.026 20.6991 -89.3432
rradius 41.5049
rwrist -23.1534
rhand -16.2604 1.92983
rfingers 7.12502
rthumb 9.94893 -27.8151
lclavicle 4.93234e-015 1.01877e-015
lhumerus 6.83165 -7.73173 29.1673
lradius 47.55
lwrist -5.02927
lhand -56.8053 29.3254
lfingers 7.12502
lthumb -29.1055 57.0709
rfemur -4.03054 12.397 25.2993
rtibia 24.1957
rfoot -27.3646 -26.761
rtoes -15.7676
lfemur -7.26375 -10.8432 -22.4975
ltibia 29.6452
lfoot -23.2454 20.1447
ltoes 0.534602
320
root 16.9997 15.3978 -1.98392 182.13 -76.7742 -184.478
lowerback 7.66837 0.480661 -1.13439
upperback 3.83591 0.430919 -0.376374
thorax -0.345938 0.149699 0.216386
lowerneck -8.75578 2.50294 5.96991
upperneck 5.38863 2.56464 0.43177
head 3.38601 1.40919 -0.765986
rclavicle 9.16894e-015 8.39865e-015
rhumerus -37.302 20.124 -89.261
rradius 41.139
rwrist -22.9394
rhand -16.4744 1.6326
rfingers 7.12502
rthumb 9.7425 -28.1221
lclavicle 9.16894e-015 8.39865e-015
lhumerus 5.65085 -11.7275 29.3235
lradius 50.1714
lwrist -4.80346
lhand -54.3291 18.8131
lfingers 7.12502
lthumb -26.7383 46.9438
rfemur -3.98215 12.5108 25.2831
rtibia 24.2029
rfoot -27.6596 -27.031
rtoes -15.3634
lfemur -7.22905 -10.9963 -22.4845
ltibia 29.5082
lfoot -23.0122 20.0915
ltoes -0.960695
321
root 16.9939 15.3951 -1.97141 181.846 -77.2571 -184.203
lowerback 7.63858 0.410042 -1.09103
upperback 3.80422 0.343473 -0.322147
thorax -0.361211 0.107411 0.254727
lowerneck -9.01232 2.26932 5.84772
upperneck 5.55164 2.19728 0.971551
head 3.46982 1.24852 -0.585027
rclavicle 1.07033e-014 7.70291e-015
rhumerus -37.6074 19.7728 -89.179
rradius 40.8141
rwrist -22.8239
rhand -16.3694 1.31714
rfingers 7.12502
rthumb 9.84374 -28.4328
lclavicle 1.07033e-014 7.70291e-015
lhumerus 4.82616 -15.7501 29.4106
lradius 52.7454
lwrist -4.7072
lhand -55.5678 20.3426
lfingers 7.12502
lthumb -27.9231 48.2865
rfemur -3.90747 12.6139 25.3841
rtibia 24.2381
rfoot -28.0297 -27.41
rtoes -14.8521
lfemur -7.23289 -11.0327 -22.3815
ltibia 29.4134
lfoot -22.7246 19.8108
ltoes -1.83985
322
root 16.9898 15.3934 -1.9565 181.419 -77.7373 -183.747
lowerback 7.61387 0.318936 -1.03635
upperback 3.74162 0.230821 -0.244615
thorax -0.410825 0.0532861 0.312556
lowerneck -9.07971 2.10358 5.71067
upperneck 5.53861 1.94941 1.40292
head 3.46268 1.13857 -0.432546
rclavicle 1.85118e-015 -8.67198e-015
rhumerus -37.7632 19.5005 -89.0805
rradius 40.3739
rwrist -22.5413
rhand -15.9535 0.908941
rfingers 7.12502
rthumb 10.245 -28.8216
lclavicle 1.85118e-015 -8.67198e-015
lhumerus 4.39975 -19.583 29.4466
lradius 55.1472
lwrist -5.70528
lhand -54.4841 14.3712
lfingers 7.12502
lthumb -26.8867 42.4791
rfemur -3.86324 12.6 25.4806
rtibia 24.2253
rfoot -28.0943 -27.8227
rtoes -15.3268
lfemur -7.29417 -10.9653 -22.3023
ltibia 29.3665
lfoot -22.3121 19.7331
ltoes -3.47071
323
root 16.9842 15.3934 -1.94019 181.428 -78.1932 -183.739
lowerback 7.52191 0.24432 -1.05298
upperback 3.73698 0.133587 -0.237687
thorax -0.363621 0.00497499 0.336732
lowerneck -9.07829 2.02658 5.47176
upperneck 5.2797 1.83481 1.95392
head 3.35771 1.09017 -0.216922
rclavicle -1.86982e-014 5.54112e-015
rhumerus -37.8103 19.221 -89.015
rradius 39.9451
rwrist -22.1185
rhand -15.2693 0.386898
rfingers 7.12502
rthumb 10.905 -29.3099
lclavicle -1.86982e-014 5.54112e-015
lhumerus 4.54515 -22.9223 29.2178
lradius 57.9264
lwrist -6.08745
lhand -53.408 11.5053
lfingers 7.12502
lthumb -25.8565 39.7676
rfemur -3.77389 12.6014 25.4694
rtibia 24.1471
rfoot -28.1491 -28.2303
rtoes -15.8815
lfemur -7.34957 -11.0583 -22.3781
ltibia 29.3444
lfoot -22.0446 19.793
ltoes -4.92493
324
root 16.9774 15.4007 -1.91956 181.71 -78.6076 -184.017
lowerback 7.42227 0.228754 -1.05951
upperback 3.72945 0.114903 -0.291744
thorax -0.316024 -0.00346709 0.286361
lowerneck -9.14162 1.85937 5.31199
upperneck 5.27165 1.59405 2.3301
head 3.35613 0.981246 -0.0788047
rclavicle -9.75287e-015 -1.09332e-015
rhumerus -38.024 19.0965 -89.083
rradius 39.6392
rwrist -22.1279
rhand -14.7279 0.0464275
rfingers 7.12502
rthumb 11.4272 -29.6222
lclavicle -9.75287e-015 -1.09332e-015
lhumerus 5.26821 -26.146 28.541
lradius 60.5357
lwrist -7.73972
lhand -53.6374 7.70675
lfingers 7.12502
lthumb -26.0762 35.9368
rfemur -3.66697 12.5515 25.3678
rtibia 24.058
rfoot -28.2704 -28.5213
rtoes -15.9835
lfemur -7.39441 -11.493 -22.5285
ltibia 29.2996
lfoot -22.2379 19.6777
ltoes -3.64247
